<svg id="Layer_1" enable-background="new 0 0 256 256" height="512" viewBox="0 0 256 256" width="512" xmlns="http://www.w3.org/2000/svg"><g><g><path d="m42.079 30.182h34.874v125.359h-34.874z" fill="#f9a7a7"/></g><g><path d="m76.954 157.541h-34.875c-1.104 0-2-.896-2-2v-125.359c0-1.104.896-2 2-2h34.875c1.104 0 2 .896 2 2v125.359c0 1.104-.896 2-2 2zm-32.875-4h30.875v-121.359h-30.875z" fill="#3762cc"/></g><g><path d="m80.438 40.335h-42.156c-1.838 0-3.328-1.49-3.328-3.328v-13.963c0-1.838 1.49-3.328 3.328-3.328h42.156c1.838 0 3.328 1.49 3.328 3.328v13.962c0 1.838-1.49 3.329-3.328 3.329z" fill="#4671c6"/></g><g><path d="m125.496 11.417-83.417 82.848v136.322c0 3.289 2.666 5.956 5.956 5.956h154.353c3.289 0 5.956-2.666 5.956-5.956v-136.322z" fill="#f9cfcf"/></g><g><path d="m150.727 236.542h-51.031v-89.877c0-2.451 1.987-4.437 4.437-4.437h42.156c2.451 0 4.437 1.987 4.437 4.437v89.877z" fill="#6bdddd"/></g><g><g><path d="m82.964 196.587h-24.961c-1.838 0-3.328-1.49-3.328-3.328v-47.703c0-1.838 1.49-3.328 3.328-3.328h24.961c1.838 0 3.328 1.49 3.328 3.328v47.703c0 1.838-1.49 3.328-3.328 3.328z" fill="#a4c9ff"/></g><g><path d="m192.42 196.587h-24.961c-1.838 0-3.328-1.49-3.328-3.328v-47.703c0-1.838 1.49-3.328 3.328-3.328h24.961c1.838 0 3.328 1.49 3.328 3.328v47.703c0 1.838-1.49 3.328-3.328 3.328z" fill="#a4c9ff"/></g></g><g><path d="m108.571 198.587c-1.104 0-2-.896-2-2v-11.219c0-1.104.896-2 2-2s2 .896 2 2v11.219c0 1.104-.895 2-2 2z" fill="#3762cc"/></g><g><g><path d="m82.963 198.587h-24.96c-2.938 0-5.328-2.39-5.328-5.328v-47.703c0-2.938 2.39-5.328 5.328-5.328h24.96c2.938 0 5.328 2.39 5.328 5.328v47.703c.001 2.938-2.39 5.328-5.328 5.328zm-24.96-54.359c-.732 0-1.328.596-1.328 1.328v47.703c0 .732.596 1.328 1.328 1.328h24.96c.732 0 1.328-.596 1.328-1.328v-47.703c0-.732-.596-1.328-1.328-1.328z" fill="#3762cc"/></g><g><path d="m192.42 198.587h-24.961c-2.938 0-5.328-2.39-5.328-5.328v-47.703c0-2.938 2.391-5.328 5.328-5.328h24.961c2.938 0 5.328 2.39 5.328 5.328v47.703c0 2.938-2.391 5.328-5.328 5.328zm-24.961-54.359c-.732 0-1.328.596-1.328 1.328v47.703c0 .732.596 1.328 1.328 1.328h24.961c.732 0 1.328-.596 1.328-1.328v-47.703c0-.732-.596-1.328-1.328-1.328z" fill="#3762cc"/></g></g><g><path d="m150.727 238.542h-51.031c-1.104 0-2-.896-2-2v-89.877c0-3.55 2.888-6.438 6.438-6.438h42.156c3.55 0 6.438 2.888 6.438 6.438v89.877c-.001 1.104-.897 2-2.001 2zm-49.031-4h47.031v-87.877c0-1.344-1.094-2.438-2.438-2.438h-42.156c-1.344 0-2.438 1.093-2.438 2.438v87.877z" fill="#3762cc"/></g><g><path d="m80.438 42.334h-42.156c-2.938 0-5.328-2.39-5.328-5.328v-13.962c0-2.938 2.39-5.328 5.328-5.328h42.156c2.938 0 5.328 2.39 5.328 5.328v13.962c0 2.938-2.39 5.328-5.328 5.328zm-42.156-20.618c-.732 0-1.328.596-1.328 1.328v13.962c0 .732.596 1.328 1.328 1.328h42.156c.732 0 1.328-.596 1.328-1.328v-13.962c0-.732-.596-1.328-1.328-1.328z" fill="#3762cc"/></g><g><path d="m202.388 238.542h-154.353c-4.387 0-7.956-3.569-7.956-7.956v-136.321c0-.533.212-1.043.591-1.419l83.417-82.848c.781-.776 2.045-.775 2.823.005l82.848 82.848c.375.375.586.884.586 1.414v136.322c0 4.386-3.57 7.955-7.956 7.955zm-158.309-143.445v135.489c0 2.181 1.775 3.956 3.956 3.956h154.353c2.182 0 3.956-1.774 3.956-3.956v-135.493l-80.853-80.853z" fill="#3762cc"/></g><g><g><path d="m230.109 143.4-100.975-100.975c-2.166-2.166-5.678-2.166-7.844 0l-100.976 100.975c-2.166 2.166-5.678 2.166-7.844 0l-7.845-7.845c-2.166-2.166-2.166-5.678 0-7.845l116.664-116.663c2.166-2.166 5.678-2.166 7.844 0l116.665 116.664c2.166 2.166 2.166 5.678 0 7.845l-7.845 7.845c-2.165 2.166-5.677 2.166-7.844-.001z" fill="#4671c6"/></g></g><g><g><path d="m234.031 147.025c-2.016 0-3.911-.785-5.336-2.211l-100.975-100.975c-1.383-1.382-3.634-1.382-5.017 0l-100.975 100.975c-2.942 2.942-7.729 2.943-10.672 0l-7.846-7.844c-2.942-2.942-2.942-7.73 0-10.673l116.665-116.664c2.942-2.943 7.731-2.943 10.673 0l116.665 116.664c2.942 2.942 2.942 7.73 0 10.673l-7.845 7.844c-1.425 1.426-3.32 2.211-5.337 2.211zm-108.82-108.221c1.933 0 3.865.735 5.336 2.206l100.976 100.976c1.341 1.34 3.678 1.339 5.017 0l7.845-7.844c1.383-1.383 1.383-3.634 0-5.017l-116.665-116.664c-1.341-1.34-3.676-1.34-5.017 0l-116.664 116.664c-1.382 1.383-1.382 3.633 0 5.017l7.845 7.844c1.383 1.383 3.633 1.383 5.016 0l100.975-100.975c1.471-1.471 3.404-2.207 5.336-2.207z" fill="#3762cc"/></g></g><g><path d="m248.256 210.207h-21.749c-2.62 0-4.744-2.124-4.744-4.744v-78.028c0-2.62 2.124-4.744 4.744-4.744h21.749c2.62 0 4.744 2.124 4.744 4.744v78.028c0 2.62-2.124 4.744-4.744 4.744z" fill="#a4c9ff"/></g><g><g><path d="m244.915 135.848c0-3.326-2.706-6.032-6.031-6.032h-6.67c-1.285 0-2.326 1.042-2.326 2.326v19.268c0 1.285 1.041 2.326 2.326 2.326h6.67c3.326 0 6.031-2.706 6.031-6.032v-4.447c0-1.397-.482-2.682-1.282-3.706.801-1.021 1.282-2.306 1.282-3.703zm-10.374-1.379h4.344c1.822 0 1.823 2.759 0 2.759h-4.344zm0 14.616v-7.205h4.344c.76 0 1.379.619 1.379 1.379-.001 6.723.863 5.826-5.723 5.826z" fill="#4671c6"/></g><g><path d="m238.864 179.161h-6.67c-1.285 0-2.326 1.041-2.326 2.326v19.268c0 1.285 1.041 2.326 2.326 2.326h6.67c3.326 0 6.031-2.706 6.031-6.032v-4.447c0-1.397-.482-2.682-1.282-3.705.8-1.024 1.282-2.308 1.282-3.706 0-3.324-2.705-6.03-6.031-6.03zm-4.344 4.653h4.344c1.822 0 1.823 2.758 0 2.758h-4.344zm5.723 13.236c0 .76-.619 1.379-1.379 1.379h-4.344v-7.205c6.616.001 5.723-.86 5.723 5.826z" fill="#4671c6"/></g><g><path d="m241.609 173.297c1.285 0 2.326-1.041 2.326-2.326v-5.232c0-3.384-2.931-6.137-6.533-6.137-3.603 0-6.534 2.753-6.534 6.137v5.232c0 1.285 1.041 2.326 2.326 2.326s2.326-1.041 2.326-2.326v-5.232c0-.805.862-1.484 1.882-1.484 1.019 0 1.881.68 1.881 1.484v5.232c0 1.284 1.041 2.326 2.326 2.326z" fill="#4671c6"/></g></g><g><g><path d="m221.763 144.21h-13.419c-1.104 0-2-.896-2-2s.896-2 2-2h13.419c1.104 0 2 .896 2 2s-.896 2-2 2z" fill="#3762cc"/></g><g><path d="m221.763 189.935h-13.419c-1.104 0-2-.896-2-2s.896-2 2-2h13.419c1.104 0 2 .896 2 2s-.896 2-2 2z" fill="#3762cc"/></g></g><g><path d="m248.256 212.208h-21.749c-3.719 0-6.744-3.025-6.744-6.745v-78.027c0-3.719 3.025-6.744 6.744-6.744h21.749c3.719 0 6.744 3.025 6.744 6.744v78.027c0 3.719-3.025 6.745-6.744 6.745zm-21.749-87.517c-1.513 0-2.744 1.231-2.744 2.744v78.027c0 1.513 1.231 2.745 2.744 2.745h21.749c1.513 0 2.744-1.231 2.744-2.745v-78.027c0-1.513-1.231-2.744-2.744-2.744z" fill="#3762cc"/></g><g><path d="m229.023 246.577h-207.884c-1.483 0-2.686-1.203-2.686-2.686v-15.232c0-1.483 1.203-2.686 2.686-2.686h207.883c1.483 0 2.686 1.203 2.686 2.686v15.232c.001 1.484-1.202 2.686-2.685 2.686z" fill="#4671c6"/></g><g><path d="m229.022 248.578h-207.883c-2.584 0-4.686-2.103-4.686-4.687v-15.232c0-2.584 2.102-4.686 4.686-4.686h207.883c2.584 0 4.687 2.102 4.687 4.686v15.232c0 2.584-2.103 4.687-4.687 4.687zm-207.883-20.605c-.378 0-.686.308-.686.686v15.232c0 .378.308.687.686.687h207.883c.379 0 .687-.308.687-.687v-15.232c0-.378-.308-.686-.687-.686z" fill="#3762cc"/></g><g><g><g><path d="m60.903 178.414c-.985-.569-1.323-1.829-.754-2.815l8.818-15.274c.568-.985 1.829-1.323 2.814-.754s1.323 1.829.754 2.815l-8.818 15.274c-.57.988-1.83 1.322-2.814.754z" fill="#e0ebfc"/></g></g><g><g><path d="m69.185 179.243c-.985-.569-1.323-1.829-.754-2.815l8.818-15.274c.568-.985 1.83-1.323 2.814-.754.985.569 1.323 1.829.754 2.815l-8.817 15.273c-.57.989-1.831 1.323-2.815.755z" fill="#e0ebfc"/></g></g></g><g><g><g><path d="m170.359 178.414c-.985-.569-1.323-1.829-.754-2.815l8.818-15.274c.568-.985 1.829-1.323 2.814-.754s1.323 1.829.754 2.815l-8.818 15.274c-.569.988-1.83 1.322-2.814.754z" fill="#e0ebfc"/></g></g><g><g><path d="m178.642 179.243c-.985-.569-1.323-1.829-.754-2.815l8.818-15.274c.568-.985 1.83-1.323 2.814-.754.985.569 1.323 1.829.754 2.815l-8.818 15.274c-.57.988-1.83 1.322-2.814.754z" fill="#e0ebfc"/></g></g></g></g></svg>