<svg id="Layer_1" enable-background="new 0 0 512 512" height="512" viewBox="0 0 512 512" width="512" xmlns="http://www.w3.org/2000/svg"><g><path d="m432.014 363.217h-352.028l.515-154.347 176.124-31.387 174.874 31.387z" fill="#ff8fb4"/><path d="m431.499 208.87h-41.207l.515 154.347h41.207z" fill="#ff73a1"/><path d="m80.501 131.907h350.998v76.963h-350.998z" fill="#ffe4b0"/><path d="m390.292 131.907h41.207v76.963h-41.207z" fill="#ffdd9c"/><path d="m196.174 159.394h119.651v49.476h-119.651z" fill="#fff"/><g><path d="m256.37 166.884c90.984-.076 183.141-12.178 255.63-36.328l-19.103-33.319h-26.12c-22.559 0-43.302-13.074-54.03-34.053l-11.241-21.984c-95.275 22.376-195.736 22.376-291.012 0l-11.241 21.985c-10.728 20.979-31.471 34.053-54.03 34.053h-26.12l-19.103 33.319c72.489 24.149 164.646 36.252 255.63 36.328h.74z" fill="#8a8894"/><g><path d="m492.897 97.238h-26.12c-22.559 0-43.302-13.074-54.03-34.053l-11.241-21.984c-12.365 2.904-24.818 5.423-37.335 7.573l7.369 14.411c10.728 20.979 31.471 34.053 54.03 34.053h26.12l19.103 33.319c-67.118 22.36-151.098 34.384-235.396 36.104 6.745.138 13.493.218 20.234.223h.74c90.984-.076 183.141-12.178 255.63-36.327z" fill="#7e7b8f"/></g><g fill="#6b6780"><path d="m123.534 89.511c0-4.267-3.459-7.726-7.726-7.726h-30.81c-10.923 9.811-24.95 15.449-39.76 15.453h70.57c4.266 0 7.726-3.46 7.726-7.727z"/><path d="m388.466 89.511c0 4.267 3.459 7.726 7.726 7.726h70.57c-14.81-.004-28.837-5.642-39.76-15.453h-30.81c-4.266.001-7.726 3.46-7.726 7.727z"/></g></g><g><g><path d="m117.87 248.021h66.268v115.196h-66.268z" fill="#fff"/></g><path d="m117.87 313.345h25.408v49.871c0 4.267 3.459 7.726 7.726 7.726s7.726-3.459 7.726-7.726v-49.871h25.407v-15.453h-25.407v-49.872h-15.453v49.872h-25.407z" fill="#ffe4b0"/></g><g><g><path d="m222.866 248.021h66.268v115.196h-66.268z" fill="#fff"/></g><path d="m263.726 363.216v-49.871h25.408v-15.452h-25.408v-49.872h-15.452v49.872h-25.408v15.452h25.408v49.871z" fill="#ffe4b0"/></g><g><g><path d="m327.861 248.021h66.268v115.196h-66.268z" fill="#fff"/></g><path d="m327.862 313.345h25.407v49.871c0 4.267 3.459 7.726 7.726 7.726s7.726-3.459 7.726-7.726v-49.871h25.408v-15.453h-25.408v-49.872h-15.453v49.872h-25.407v15.453z" fill="#ffe4b0"/></g><path d="m34.511 363.217h442.978v35.861h-442.978z" fill="#ffe4b0"/><path d="m436.282 363.217h41.207v35.861h-41.207z" fill="#ffdd9c"/><path d="m16.113 399.077h479.774v35.861h-479.774z" fill="#ffcb69"/><path d="m454.68 399.077h41.207v35.861h-41.207z" fill="#ffc14d"/><path d="m184.139 434.938h143.723v35.861h-143.723z" fill="#ffe4b0"/><g fill="#ff73a1"><path d="m168.686 363.216h15.453v107.583h-15.453z"/><path d="m327.862 363.216h15.453v107.583h-15.453z"/></g></g></svg>