<svg id="Capa_1" enable-background="new 0 0 512 512" height="512" viewBox="0 0 512 512" width="512" xmlns="http://www.w3.org/2000/svg"><g><g><path d="m83.198 201.991-7.935 6.775v295.734h63.477l5.393-7.5v-295.009z" fill="#dbedff"/><path d="m85.198 201.991h-35.5l-7.935 6.775v295.734h35.5v-295.734z" fill="#b5dcff"/><path d="m138.74 174.362h-97.027c-4.003 0-7.248 3.245-7.248 7.247v19.91c0 4.002 3.245 7.247 7.248 7.247h97.026l2.269-1.016v-30.757z" fill="#ffaa5b"/><path d="m464.633 201.991h-97v299.342l5.626 3.167h96.976v-295.734z" fill="#dbedff"/><path d="m406.839 201.991h-39.206v299.342l5.626 3.167h33.58z" fill="#b5dcff"/><path d="m470.286 174.362h-97.027l-4.459 2.486v29.319l4.459 2.6h97.027c4.002 0 7.247-3.245 7.247-7.247v-19.91c0-4.003-3.245-7.248-7.247-7.248z" fill="#ffaa5b"/><path d="m406.839 174.362h-33.58l-4.459 2.486v29.319l4.459 2.599h33.58z" fill="#ff9838"/><path d="m327.431 7.5h-100.581l-5.217 3.625v55.625l6.712 3.779h99.085c5.633 0 10.199-4.566 10.199-10.199v-42.631c.001-5.633-4.565-10.199-10.198-10.199z" fill="#ffe02f"/><path d="m222.315 60.33v-42.631c0-5.633 4.566-10.199 10.199-10.199h-47.946c-5.633 0-10.199 4.566-10.199 10.199v42.631c0 5.633 4.566 10.199 10.199 10.199h47.946c-5.633 0-10.199-4.567-10.199-10.199z" fill="#fbc700"/><path d="m367.633 138h-222.446l-6.447 6.766v359.734h234.519v-359.734z" fill="#dbedff"/><path d="m183.52 138h-38.333l-6.447 6.766v359.734h38.333v-359.734z" fill="#b5dcff"/><path d="m253.633 419h63.627v85.5h-63.627z" fill="#8479c2"/><g><path d="m200.439 183.748h-4.914l-5.642 4.314v28.062l5.589 4.11h4.967c4.205 0 7.614-3.409 7.614-7.614v-21.259c0-4.204-3.409-7.613-7.614-7.613z" fill="#8479c2"/><path d="m191.211 212.621v-21.259c0-4.205 3.409-7.614 7.613-7.614h-16.842c-4.205 0-7.614 3.409-7.614 7.614v21.259c0 4.205 3.409 7.614 7.614 7.614h16.842c-4.204 0-7.613-3.409-7.613-7.614z" fill="#6e60b8"/></g><g><path d="m265.227 183.748h-4.914l-5.642 4.314v28.062l5.589 4.11h4.967c4.205 0 7.614-3.409 7.614-7.614v-21.259c0-4.204-3.409-7.613-7.614-7.613z" fill="#8479c2"/><path d="m255.999 212.621v-21.259c0-4.205 3.409-7.614 7.613-7.614h-16.842c-4.205 0-7.614 3.409-7.614 7.614v21.259c0 4.205 3.409 7.614 7.614 7.614h16.842c-4.204 0-7.613-3.409-7.613-7.614z" fill="#6e60b8"/></g><g><path d="m330.016 183.748h-4.914l-5.642 4.314v28.062l5.589 4.11h4.967c4.205 0 7.614-3.409 7.614-7.614v-21.259c0-4.204-3.409-7.613-7.614-7.613z" fill="#8479c2"/><path d="m320.788 212.621v-21.259c0-4.205 3.409-7.614 7.613-7.614h-16.842c-4.205 0-7.614 3.409-7.614 7.614v21.259c0 4.205 3.409 7.614 7.614 7.614h16.842c-4.205 0-7.613-3.409-7.613-7.614z" fill="#6e60b8"/></g><g><path d="m200.439 250.717h-4.914l-5.642 4.314v28.062l5.589 4.11h4.967c4.205 0 7.614-3.409 7.614-7.614v-21.259c0-4.205-3.409-7.613-7.614-7.613z" fill="#8479c2"/><path d="m191.211 279.59v-21.26c0-4.205 3.409-7.614 7.613-7.614h-16.842c-4.205 0-7.614 3.409-7.614 7.614v21.259c0 4.205 3.409 7.614 7.614 7.614h16.842c-4.204 0-7.613-3.409-7.613-7.613z" fill="#6e60b8"/></g><g><path d="m265.227 250.717h-4.914l-5.642 4.314v28.062l5.589 4.11h4.967c4.205 0 7.614-3.409 7.614-7.614v-21.259c0-4.205-3.409-7.613-7.614-7.613z" fill="#8479c2"/><path d="m255.999 279.59v-21.26c0-4.205 3.409-7.614 7.613-7.614h-16.842c-4.205 0-7.614 3.409-7.614 7.614v21.259c0 4.205 3.409 7.614 7.614 7.614h16.842c-4.204 0-7.613-3.409-7.613-7.613z" fill="#6e60b8"/></g><g><path d="m330.016 250.717h-4.914l-5.642 4.314v28.062l5.589 4.11h4.967c4.205 0 7.614-3.409 7.614-7.614v-21.259c0-4.205-3.409-7.613-7.614-7.613z" fill="#8479c2"/><path d="m320.788 279.59v-21.26c0-4.205 3.409-7.614 7.613-7.614h-16.842c-4.205 0-7.614 3.409-7.614 7.614v21.259c0 4.205 3.409 7.614 7.614 7.614h16.842c-4.205 0-7.613-3.409-7.613-7.613z" fill="#6e60b8"/></g><g><path d="m200.439 317.685h-4.914l-5.642 4.314v28.062l5.589 4.11h4.967c4.205 0 7.614-3.409 7.614-7.614v-21.259c0-4.204-3.409-7.613-7.614-7.613z" fill="#8479c2"/><path d="m191.211 346.558v-21.259c0-4.205 3.409-7.614 7.613-7.614h-16.842c-4.205 0-7.614 3.409-7.614 7.614v21.259c0 4.205 3.409 7.614 7.614 7.614h16.842c-4.204 0-7.613-3.409-7.613-7.614z" fill="#6e60b8"/></g><g><path d="m265.227 317.685h-4.914l-5.642 4.314v28.062l5.589 4.11h4.967c4.205 0 7.614-3.409 7.614-7.614v-21.259c0-4.204-3.409-7.613-7.614-7.613z" fill="#8479c2"/><path d="m255.999 346.558v-21.259c0-4.205 3.409-7.614 7.613-7.614h-16.842c-4.205 0-7.614 3.409-7.614 7.614v21.259c0 4.205 3.409 7.614 7.614 7.614h16.842c-4.204 0-7.613-3.409-7.613-7.614z" fill="#6e60b8"/></g><g><path d="m330.016 317.685h-4.914l-5.642 4.314v28.062l5.589 4.11h4.967c4.205 0 7.614-3.409 7.614-7.614v-21.259c0-4.204-3.409-7.613-7.614-7.613z" fill="#8479c2"/><path d="m320.788 346.558v-21.259c0-4.205 3.409-7.614 7.613-7.614h-16.842c-4.205 0-7.614 3.409-7.614 7.614v21.259c0 4.205 3.409 7.614 7.614 7.614h16.842c-4.205 0-7.613-3.409-7.613-7.614z" fill="#6e60b8"/></g><path d="m194.738 419h61.261v85.5h-61.261z" fill="#6e60b8"/><path d="m194.738 419h30.63v85.5h-30.63z" fill="#6353b2"/><path d="m322.285 388.029h-79.622l-4.654 2.784v28.062l5.204 3.558h79.073c4.002 0 7.247-3.245 7.247-7.247v-19.91c-.001-4.003-3.246-7.247-7.248-7.247z" fill="#ffe02f"/><path d="m239.157 415.186v-19.91c0-4.002 3.245-7.247 7.248-7.247h-56.691c-4.003 0-7.247 3.245-7.247 7.247v19.91c0 4.003 3.244 7.247 7.247 7.247h56.691c-4.003 0-7.248-3.245-7.248-7.247z" fill="#fbc700"/><path d="m373.309 110.362h-234.619c-4.003 0-7.247 3.245-7.247 7.247v19.91c0 4.003 3.245 7.247 7.247 7.247h234.619c4.002 0 7.247-3.245 7.247-7.247v-19.91c0-4.002-3.244-7.247-7.247-7.247z" fill="#ffaa5b"/><path d="m169.609 137.519v-19.91c0-4.003 3.244-7.247 7.247-7.247h-38.166c-4.003 0-7.248 3.245-7.248 7.247v19.91c0 4.003 3.245 7.247 7.248 7.247h38.167c-4.003 0-7.248-3.244-7.248-7.247z" fill="#ff9838"/><path d="m72.633 201.519v-19.91c0-4.003 3.244-7.247 7.247-7.247h-38.167c-4.003 0-7.248 3.245-7.248 7.247v19.91c0 4.003 3.245 7.247 7.248 7.247h38.167c-4.003 0-7.247-3.244-7.247-7.247z" fill="#ff9838"/><g><path d="m430.975 250.717h-4.914l-5.642 4.314v28.062l5.589 4.11h4.967c4.205 0 7.614-3.409 7.614-7.614v-21.259c0-4.204-3.409-7.613-7.614-7.613z" fill="#8479c2"/><path d="m421.747 279.59v-21.26c0-4.205 3.409-7.614 7.613-7.614h-16.842c-4.205 0-7.614 3.409-7.614 7.614v21.259c0 4.205 3.409 7.614 7.614 7.614h16.842c-4.204 0-7.613-3.409-7.613-7.613z" fill="#6e60b8"/></g><g><path d="m430.975 317.685h-4.914l-5.642 4.314v28.062l5.589 4.11h4.967c4.205 0 7.614-3.409 7.614-7.614v-21.259c0-4.204-3.409-7.613-7.614-7.613z" fill="#8479c2"/><path d="m421.747 346.558v-21.259c0-4.205 3.409-7.614 7.613-7.614h-16.842c-4.205 0-7.614 3.409-7.614 7.614v21.259c0 4.205 3.409 7.614 7.614 7.614h16.842c-4.204 0-7.613-3.409-7.613-7.614z" fill="#6e60b8"/></g><g><path d="m430.975 384.653h-4.914l-5.642 4.314v28.062l5.589 4.11h4.967c4.205 0 7.614-3.409 7.614-7.614v-21.259c0-4.204-3.409-7.613-7.614-7.613z" fill="#8479c2"/><path d="m421.747 413.526v-21.259c0-4.205 3.409-7.614 7.613-7.614h-16.842c-4.205 0-7.614 3.409-7.614 7.614v21.259c0 4.205 3.409 7.614 7.614 7.614h16.842c-4.204 0-7.613-3.409-7.613-7.614z" fill="#6e60b8"/></g><g><path d="m99.48 250.717h-4.914l-5.642 4.314v28.062l5.589 4.11h4.967c4.205 0 7.614-3.409 7.614-7.614v-21.259c0-4.204-3.409-7.613-7.614-7.613z" fill="#8479c2"/><path d="m90.252 279.59v-21.26c0-4.205 3.409-7.614 7.613-7.614h-16.842c-4.205 0-7.614 3.409-7.614 7.614v21.259c0 4.205 3.409 7.614 7.614 7.614h16.842c-4.205 0-7.613-3.409-7.613-7.613z" fill="#6e60b8"/></g><g><path d="m99.48 317.685h-4.914l-5.642 4.314v28.062l5.589 4.11h4.967c4.205 0 7.614-3.409 7.614-7.614v-21.259c0-4.204-3.409-7.613-7.614-7.613z" fill="#8479c2"/><path d="m90.252 346.558v-21.259c0-4.205 3.409-7.614 7.613-7.614h-16.842c-4.205 0-7.614 3.409-7.614 7.614v21.259c0 4.205 3.409 7.614 7.614 7.614h16.842c-4.205 0-7.613-3.409-7.613-7.614z" fill="#6e60b8"/></g><g><path d="m99.48 384.653h-4.914l-5.642 4.314v28.062l5.589 4.11h4.967c4.205 0 7.614-3.409 7.614-7.614v-21.259c0-4.204-3.409-7.613-7.614-7.613z" fill="#8479c2"/><path d="m90.252 413.526v-21.259c0-4.205 3.409-7.614 7.613-7.614h-16.842c-4.205 0-7.614 3.409-7.614 7.614v21.259c0 4.205 3.409 7.614 7.614 7.614h16.842c-4.205 0-7.613-3.409-7.613-7.614z" fill="#6e60b8"/></g></g><g><path d="m27.467 512h457.066c4.143 0 7.5-3.358 7.5-7.5s-3.357-7.5-7.5-7.5h-6.797v-143.572c0-4.142-3.357-7.5-7.5-7.5s-7.5 3.358-7.5 7.5v143.572h-81.976v-280.733h81.977v102.162c0 4.142 3.357 7.5 7.5 7.5s7.5-3.358 7.5-7.5v-104.205c4.358-2.565 7.297-7.293 7.297-12.705v-19.91c0-8.131-6.615-14.747-14.747-14.747h-89.527v-16.637c4.358-2.565 7.298-7.293 7.298-12.706v-19.91c0-8.132-6.615-14.748-14.747-14.748h-45.021v-24.876c9.361-.451 16.843-8.185 16.843-17.655v-42.63c-.002-9.76-7.942-17.7-17.701-17.7h-53.932c-4.143 0-7.5 3.358-7.5 7.5s3.357 7.5 7.5 7.5h53.932c1.488 0 2.699 1.211 2.699 2.699v42.63c0 1.488-1.211 2.699-2.699 2.699h-142.864c-1.488 0-2.699-1.21-2.699-2.699v-42.63c0-1.488 1.211-2.699 2.699-2.699h53.932c4.143 0 7.5-3.358 7.5-7.5s-3.357-7.5-7.5-7.5h-53.932c-9.76 0-17.699 7.94-17.699 17.699v42.63c0 9.47 7.482 17.204 16.843 17.655v24.877h-45.022c-8.132 0-14.747 6.616-14.747 14.748v19.91c0 5.412 2.939 10.14 7.297 12.705v16.638h-89.526c-8.132 0-14.747 6.616-14.747 14.747v19.91c0 5.412 2.939 10.14 7.297 12.705v282.776h-6.797c-4.143 0-7.5 3.358-7.5 7.5s3.357 7.5 7.5 7.5zm162.5-97.067v-19.405h132.065v19.405c-.925 0-131.14 0-132.065 0zm12.272 15h46.261v67.067h-46.261zm61.261 67.067v-67.067h46.261v67.067zm61.261 0v-67.292c6.955-1.183 12.271-7.236 12.271-14.522v-19.91c0-8.132-6.615-14.748-14.747-14.748h-132.57c-8.132 0-14.748 6.616-14.748 14.748v19.91c0 7.286 5.318 13.339 12.272 14.522v67.292h-40.999c0-18.248 0-337.408 0-344.734h219.519v344.734zm55.999-315.138h89.273v19.404h-89.273zm-182.048-103.834h114.576v24.833h-114.576zm-59.769 39.834h234.113v19.404h-234.113zm-96.976 64h89.273v19.404h-89.273zm7.297 34.404h81.977v280.734h-81.977z"/><path d="m200.439 176.248h-18.456c-8.334 0-15.114 6.78-15.114 15.114v21.259c0 8.334 6.78 15.114 15.114 15.114h18.456c8.334 0 15.114-6.78 15.114-15.114v-21.259c.001-8.334-6.78-15.114-15.114-15.114zm.115 36.373c0 .062-.051.114-.114.114h-18.456c-.063 0-.114-.051-.114-.114v-21.259c0-.062.051-.114.114-.114h18.456c.063 0 .114.051.114.114z"/><path d="m265.228 176.248h-18.456c-8.333 0-15.113 6.78-15.113 15.114v21.259c0 8.334 6.78 15.114 15.113 15.114h18.456c8.334 0 15.114-6.78 15.114-15.114v-21.259c0-8.334-6.78-15.114-15.114-15.114zm.114 36.373c0 .062-.051.114-.114.114h-18.456c-.062 0-.113-.051-.113-.114v-21.259c0-.062.051-.114.113-.114h18.456c.064 0 .114.05.114.114z"/><path d="m330.017 176.248h-18.457c-8.333 0-15.113 6.78-15.113 15.114v21.259c0 8.334 6.78 15.114 15.113 15.114h18.457c8.333 0 15.113-6.78 15.113-15.114v-21.259c0-8.334-6.78-15.114-15.113-15.114zm.113 36.373c0 .062-.051.114-.113.114h-18.457c-.062 0-.113-.051-.113-.114v-21.259c0-.062.051-.114.113-.114h18.457c.062 0 .113.051.113.114z"/><path d="m200.439 243.217h-18.456c-8.334 0-15.114 6.78-15.114 15.113v21.259c0 8.334 6.78 15.114 15.114 15.114h18.456c8.334 0 15.114-6.78 15.114-15.114v-21.259c.001-8.333-6.78-15.113-15.114-15.113zm.115 36.372c0 .062-.051.114-.114.114h-18.456c-.063 0-.114-.051-.114-.114v-21.259c0-.062.051-.113.114-.113h18.456c.063 0 .114.051.114.113z"/><path d="m265.228 243.217h-18.456c-8.333 0-15.113 6.78-15.113 15.113v21.259c0 8.334 6.78 15.114 15.113 15.114h18.456c8.334 0 15.114-6.78 15.114-15.114v-21.259c0-8.333-6.78-15.113-15.114-15.113zm.114 36.372c0 .064-.05.114-.114.114h-18.456c-.062 0-.113-.051-.113-.114v-21.259c0-.062.051-.113.113-.113h18.456c.063 0 .114.051.114.113z"/><path d="m330.017 243.217h-18.457c-8.333 0-15.113 6.78-15.113 15.113v21.259c0 8.334 6.78 15.114 15.113 15.114h18.457c8.333 0 15.113-6.78 15.113-15.114v-21.259c0-8.333-6.78-15.113-15.113-15.113zm.113 36.372c0 .062-.051.114-.113.114h-18.457c-.062 0-.113-.051-.113-.114v-21.259c0-.062.051-.113.113-.113h18.457c.062 0 .113.051.113.113z"/><path d="m200.439 310.185h-18.456c-8.334 0-15.114 6.78-15.114 15.114v21.259c0 8.334 6.78 15.114 15.114 15.114h18.456c8.334 0 15.114-6.78 15.114-15.114v-21.259c.001-8.334-6.78-15.114-15.114-15.114zm.115 36.373c0 .062-.051.114-.114.114h-18.456c-.063 0-.114-.051-.114-.114v-21.259c0-.062.051-.114.114-.114h18.456c.063 0 .114.051.114.114z"/><path d="m265.228 310.185h-18.456c-8.333 0-15.113 6.78-15.113 15.114v21.259c0 8.334 6.78 15.114 15.113 15.114h18.456c8.334 0 15.114-6.78 15.114-15.114v-21.259c0-8.334-6.78-15.114-15.114-15.114zm.114 36.373c0 .064-.05.114-.114.114h-18.456c-.062 0-.113-.051-.113-.114v-21.259c0-.062.051-.114.113-.114h18.456c.064 0 .114.05.114.114z"/><path d="m330.017 310.185h-18.457c-8.333 0-15.113 6.78-15.113 15.114v21.259c0 8.334 6.78 15.114 15.113 15.114h18.457c8.333 0 15.113-6.78 15.113-15.114v-21.259c0-8.334-6.78-15.114-15.113-15.114zm.113 36.373c0 .062-.051.114-.113.114h-18.457c-.062 0-.113-.051-.113-.114v-21.259c0-.062.051-.114.113-.114h18.457c.062 0 .113.051.113.114z"/><path d="m446.09 258.33c0-8.333-6.78-15.113-15.114-15.113h-18.456c-8.334 0-15.114 6.78-15.114 15.113v21.259c0 8.334 6.78 15.114 15.114 15.114h18.456c8.334 0 15.114-6.78 15.114-15.114zm-15 21.259c0 .062-.051.114-.114.114h-18.456c-.063 0-.114-.051-.114-.114v-21.259c0-.062.051-.113.114-.113h18.456c.063 0 .114.051.114.113z"/><path d="m446.09 325.299c0-8.334-6.78-15.114-15.114-15.114h-18.456c-8.334 0-15.114 6.78-15.114 15.114v21.259c0 8.334 6.78 15.114 15.114 15.114h18.456c8.334 0 15.114-6.78 15.114-15.114zm-15 21.259c0 .062-.051.114-.114.114h-18.456c-.063 0-.114-.051-.114-.114v-21.259c0-.062.051-.114.114-.114h18.456c.063 0 .114.051.114.114z"/><path d="m430.976 377.153h-18.456c-8.334 0-15.114 6.78-15.114 15.114v21.259c0 8.334 6.78 15.114 15.114 15.114h18.456c8.334 0 15.114-6.78 15.114-15.114v-21.259c0-8.334-6.78-15.114-15.114-15.114zm.114 36.373c0 .062-.051.114-.114.114h-18.456c-.063 0-.114-.051-.114-.114v-21.259c0-.062.051-.114.114-.114h18.456c.063 0 .114.051.114.114z"/><path d="m99.48 243.217h-18.457c-8.333 0-15.113 6.78-15.113 15.113v21.259c0 8.334 6.78 15.114 15.113 15.114h18.457c8.333 0 15.113-6.78 15.113-15.114v-21.259c.001-8.333-6.78-15.113-15.113-15.113zm.114 36.372c0 .062-.051.114-.113.114h-18.458c-.062 0-.113-.051-.113-.114v-21.259c0-.062.051-.113.113-.113h18.457c.062 0 .113.051.113.113v21.259z"/><path d="m99.48 310.185h-18.457c-8.333 0-15.113 6.78-15.113 15.114v21.259c0 8.334 6.78 15.114 15.113 15.114h18.457c8.333 0 15.113-6.78 15.113-15.114v-21.259c.001-8.334-6.78-15.114-15.113-15.114zm.114 36.373c0 .062-.051.114-.113.114h-18.458c-.062 0-.113-.051-.113-.114v-21.259c0-.062.051-.114.113-.114h18.457c.062 0 .113.051.113.114v21.259z"/><path d="m99.48 377.153h-18.457c-8.333 0-15.113 6.78-15.113 15.114v21.259c0 8.334 6.78 15.114 15.113 15.114h18.457c8.333 0 15.113-6.78 15.113-15.114v-21.259c.001-8.334-6.78-15.114-15.113-15.114zm.114 36.373c0 .062-.051.114-.113.114h-18.458c-.062 0-.113-.051-.113-.114v-21.259c0-.062.051-.114.113-.114h18.457c.062 0 .113.051.113.114v21.259z"/></g></g></svg>